<svg id="Layer_1" data-name="Layer 1" xmlns="http://www.w3.org/2000/svg" viewBox="0 0 603.67 93"><defs><style>.cls-1{fill:#589dc7;}.cls-2{fill:#7289da;}.cls-3{font-size:27.08px;fill:#fff;font-family:Roboto-Regular, Roboto;}.cls-4{letter-spacing:-0.01em;}</style></defs><title>discord-bot-logoArtboard 1</title><path class="cls-1" d="M33.2,1.8H0V39.4l22.1,20V22.9H34c7.5,0,11.2,3.7,11.2,9.5V60.3c0,5.8-3.5,9.7-11.2,9.7H0V91.2H33.2c17.8.1,34.5-8.8,34.5-29.4V31.7C67.7,10.9,51,1.8,33.2,1.8ZM207.3,61.9V31.1c0-11.1,19.8-13.7,25.8-2.5l18.3-7.5C244.3,5.2,231.1.5,220.2.5c-17.8,0-35.4,10.4-35.4,30.6V61.9c0,20.3,17.6,30.6,35,30.6a35.74,35.74,0,0,0,32-20.1l-19.6-9.1c-4.8,12.4-24.9,9.4-24.9-1.4ZM146.7,35.3c-6.9-1.5-11.5-4-11.8-8.3.4-10.4,16.3-10.7,25.6-.8l14.7-11.4C166,3.5,155.6.5,144.8.5c-16.3,0-32.1,9.2-32.1,26.8,0,17.1,13,26.2,27.3,28.4,7.3,1,15.4,3.9,15.2,9-.6,9.6-20.2,9.1-29.1-1.8L112,76.3c8.3,10.7,19.6,16.2,30.2,16.2,16.3,0,34.4-9.5,35.1-26.8,1-22-14.8-27.5-30.6-30.4ZM79.8,91.2h22.4V1.8H79.8ZM457.5,1.8H424.3V39.4l22.1,20V22.9h11.8c7.5,0,11.2,3.7,11.2,9.5V60.3c0,5.8-3.5,9.7-11.2,9.7h-34V91.2h33.2c17.8.1,34.5-8.8,34.5-29.4V31.7C492,10.9,475.3,1.8,457.5,1.8ZM294.6.5c-18.4,0-36.7,10.1-36.7,30.7V61.8c0,20.5,18.4,30.7,36.9,30.7s36.7-10.2,36.7-30.7V31.2C331.5,10.7,313,.5,294.6.5ZM309,61.8c0,6.4-7.2,9.7-14.3,9.7s-14.4-3.2-14.4-9.7V31.2c0-6.6,7-10.1,14-10.1,7.3,0,14.7,3.2,14.7,10.1V61.8ZM411.8,31.2c-.5-21-14.7-29.4-33-29.4H343.3V91.3H366V62.8h4l20.6,28.4h28L394.4,60.5C405.2,57.1,411.8,47.8,411.8,31.2ZM379.2,43.3H366V22.9h13.2c14.2,0,14.2,20.4,0,20.4Z"/><rect class="cls-2" x="514.33" y="0.83" width="89.33" height="44" rx="22" ry="22"/><text class="cls-3" transform="translate(534 33.46)">B<tspan class="cls-4" x="17.22" y="0">O</tspan><tspan x="35.32" y="0">T</tspan></text></svg>